<mxfile host="app.diagrams.net" agent="Mozilla/5.0 (Windows NT 10.0; Win64; x64) AppleWebKit/537.36 (KHTML, like Gecko) Chrome/127.0.0.0 Safari/537.36" version="24.7.7">
  <diagram name="Page-1" id="2YBvvXClWsGukQMizWep">
    <mxGraphModel dx="1600" dy="1870" grid="1" gridSize="10" guides="1" tooltips="1" connect="1" arrows="1" fold="1" page="1" pageScale="1" pageWidth="850" pageHeight="1100" math="0" shadow="0">
      <root>
        <mxCell id="0" />
        <mxCell id="1" parent="0" />
        <mxCell id="vAnZ-FL5wsYkbNKWijkx-1" value="&lt;font color=&quot;#ffffff&quot;&gt;ALT&lt;/font&gt;" style="shape=umlFrame;whiteSpace=wrap;html=1;pointerEvents=0;recursiveResize=0;container=1;collapsible=0;width=170;fillColor=#3333FF;strokeColor=#d6b656;swimlaneFillColor=#4F87B8;gradientColor=none;opacity=50;" parent="1" vertex="1">
          <mxGeometry x="30" y="420" width="3891" height="1530" as="geometry" />
        </mxCell>
        <mxCell id="vAnZ-FL5wsYkbNKWijkx-2" value="&lt;font color=&quot;#ffffff&quot;&gt;if no userAccountprofile is found&lt;/font&gt;" style="text;html=1;" parent="vAnZ-FL5wsYkbNKWijkx-1" vertex="1">
          <mxGeometry width="100" height="20" relative="1" as="geometry">
            <mxPoint x="20" y="40" as="offset" />
          </mxGeometry>
        </mxCell>
        <mxCell id="YY9x1Kv6m4PW0GLoKf8L-41" value="domainEventPublisher" style="shape=umlLifeline;perimeter=lifelinePerimeter;whiteSpace=wrap;html=1;container=1;dropTarget=0;collapsible=0;recursiveResize=0;outlineConnect=0;portConstraint=eastwest;newEdgeStyle={&quot;curved&quot;:0,&quot;rounded&quot;:0};fillColor=#d5e8d4;strokeColor=#000000;" parent="vAnZ-FL5wsYkbNKWijkx-1" vertex="1">
          <mxGeometry x="2320" y="150" width="200" height="1380" as="geometry" />
        </mxCell>
        <mxCell id="YY9x1Kv6m4PW0GLoKf8L-42" value="" style="html=1;points=[[0,0,0,0,5],[0,1,0,0,-5],[1,0,0,0,5],[1,1,0,0,-5]];perimeter=orthogonalPerimeter;outlineConnect=0;targetShapes=umlLifeline;portConstraint=eastwest;newEdgeStyle={&quot;curved&quot;:0,&quot;rounded&quot;:0};fillColor=#d5e8d4;strokeColor=#82b366;" parent="YY9x1Kv6m4PW0GLoKf8L-41" vertex="1">
          <mxGeometry x="95" y="80" width="10" height="1280" as="geometry" />
        </mxCell>
        <mxCell id="t-fwkB02aY1UNHuEOvj0-29" value="" style="shape=umlDestroy;whiteSpace=wrap;html=1;strokeWidth=3;targetShapes=umlLifeline;" parent="YY9x1Kv6m4PW0GLoKf8L-41" vertex="1">
          <mxGeometry x="85" y="1490" width="30" height="30" as="geometry" />
        </mxCell>
        <mxCell id="vAnZ-FL5wsYkbNKWijkx-27" value=":userAccount" style="shape=umlLifeline;perimeter=lifelinePerimeter;whiteSpace=wrap;html=1;container=1;dropTarget=0;collapsible=0;recursiveResize=0;outlineConnect=0;portConstraint=eastwest;newEdgeStyle={&quot;curved&quot;:0,&quot;rounded&quot;:0};fillColor=#d5e8d4;strokeColor=#000000;" parent="vAnZ-FL5wsYkbNKWijkx-1" vertex="1">
          <mxGeometry x="3130" y="362" width="200" height="1220" as="geometry" />
        </mxCell>
        <mxCell id="vAnZ-FL5wsYkbNKWijkx-28" value="" style="html=1;points=[[0,0,0,0,5],[0,1,0,0,-5],[1,0,0,0,5],[1,1,0,0,-5]];perimeter=orthogonalPerimeter;outlineConnect=0;targetShapes=umlLifeline;portConstraint=eastwest;newEdgeStyle={&quot;curved&quot;:0,&quot;rounded&quot;:0};fillColor=#d5e8d4;strokeColor=#82b366;" parent="vAnZ-FL5wsYkbNKWijkx-27" vertex="1">
          <mxGeometry x="95" y="100" width="10" height="960" as="geometry" />
        </mxCell>
        <mxCell id="t-fwkB02aY1UNHuEOvj0-32" value="" style="shape=umlDestroy;whiteSpace=wrap;html=1;strokeWidth=3;targetShapes=umlLifeline;" parent="vAnZ-FL5wsYkbNKWijkx-27" vertex="1">
          <mxGeometry x="85" y="1180" width="30" height="30" as="geometry" />
        </mxCell>
        <mxCell id="YY9x1Kv6m4PW0GLoKf8L-44" value=":eventSubscriber" style="shape=umlLifeline;perimeter=lifelinePerimeter;whiteSpace=wrap;html=1;container=1;dropTarget=0;collapsible=0;recursiveResize=0;outlineConnect=0;portConstraint=eastwest;newEdgeStyle={&quot;curved&quot;:0,&quot;rounded&quot;:0};fillColor=#d5e8d4;strokeColor=#000000;" parent="vAnZ-FL5wsYkbNKWijkx-1" vertex="1">
          <mxGeometry x="2570" y="210" width="200" height="1320" as="geometry" />
        </mxCell>
        <mxCell id="YY9x1Kv6m4PW0GLoKf8L-45" value="" style="html=1;points=[[0,0,0,0,5],[0,1,0,0,-5],[1,0,0,0,5],[1,1,0,0,-5]];perimeter=orthogonalPerimeter;outlineConnect=0;targetShapes=umlLifeline;portConstraint=eastwest;newEdgeStyle={&quot;curved&quot;:0,&quot;rounded&quot;:0};fillColor=#d5e8d4;strokeColor=#82b366;" parent="YY9x1Kv6m4PW0GLoKf8L-44" vertex="1">
          <mxGeometry x="95" y="230" width="10" height="1080" as="geometry" />
        </mxCell>
        <mxCell id="t-fwkB02aY1UNHuEOvj0-28" value="" style="shape=umlDestroy;whiteSpace=wrap;html=1;strokeWidth=3;targetShapes=umlLifeline;" parent="YY9x1Kv6m4PW0GLoKf8L-44" vertex="1">
          <mxGeometry x="85" y="1430" width="30" height="30" as="geometry" />
        </mxCell>
        <mxCell id="YY9x1Kv6m4PW0GLoKf8L-37" value="DomainEvent:newUserCreatedEvent" style="shape=umlLifeline;perimeter=lifelinePerimeter;whiteSpace=wrap;html=1;container=1;dropTarget=0;collapsible=0;recursiveResize=0;outlineConnect=0;portConstraint=eastwest;newEdgeStyle={&quot;curved&quot;:0,&quot;rounded&quot;:0};fillColor=#d5e8d4;strokeColor=#000000;" parent="vAnZ-FL5wsYkbNKWijkx-1" vertex="1">
          <mxGeometry x="3440" y="448" width="200" height="1169" as="geometry" />
        </mxCell>
        <mxCell id="YY9x1Kv6m4PW0GLoKf8L-38" value="" style="html=1;points=[[0,0,0,0,5],[0,1,0,0,-5],[1,0,0,0,5],[1,1,0,0,-5]];perimeter=orthogonalPerimeter;outlineConnect=0;targetShapes=umlLifeline;portConstraint=eastwest;newEdgeStyle={&quot;curved&quot;:0,&quot;rounded&quot;:0};fillColor=#d5e8d4;strokeColor=#82b366;" parent="YY9x1Kv6m4PW0GLoKf8L-37" vertex="1">
          <mxGeometry x="95" y="100" width="10" height="910" as="geometry" />
        </mxCell>
        <mxCell id="t-fwkB02aY1UNHuEOvj0-33" value="" style="shape=umlDestroy;whiteSpace=wrap;html=1;strokeWidth=3;targetShapes=umlLifeline;" parent="YY9x1Kv6m4PW0GLoKf8L-37" vertex="1">
          <mxGeometry x="85" y="1129" width="30" height="30" as="geometry" />
        </mxCell>
        <mxCell id="-0hkEy1Hxc49sj2pGJvD-6" style="edgeStyle=orthogonalEdgeStyle;rounded=0;orthogonalLoop=1;jettySize=auto;html=1;curved=0;dashed=1;endArrow=open;endFill=0;exitX=1.5;exitY=0.355;exitDx=0;exitDy=0;exitPerimeter=0;entryX=0.5;entryY=0.315;entryDx=0;entryDy=0;entryPerimeter=0;" parent="vAnZ-FL5wsYkbNKWijkx-1" edge="1">
          <mxGeometry relative="1" as="geometry">
            <mxPoint x="2430" y="684.4000000000001" as="sourcePoint" />
            <mxPoint x="2945" y="692.4000000000001" as="targetPoint" />
            <Array as="points">
              <mxPoint x="2390" y="684" />
              <mxPoint x="2390" y="692" />
            </Array>
          </mxGeometry>
        </mxCell>
        <mxCell id="YY9x1Kv6m4PW0GLoKf8L-53" style="edgeStyle=orthogonalEdgeStyle;rounded=0;orthogonalLoop=1;jettySize=auto;html=1;curved=0;entryX=0.5;entryY=0.147;entryDx=0;entryDy=0;entryPerimeter=0;exitX=0.5;exitY=0.293;exitDx=0;exitDy=0;exitPerimeter=0;" parent="vAnZ-FL5wsYkbNKWijkx-1" edge="1">
          <mxGeometry relative="1" as="geometry">
            <Array as="points" />
            <mxPoint x="2670" y="556.7600000000002" as="targetPoint" />
            <mxPoint x="2420" y="573.04" as="sourcePoint" />
          </mxGeometry>
        </mxCell>
        <mxCell id="YY9x1Kv6m4PW0GLoKf8L-54" value="handle(newUserCreatedEvent):void" style="edgeLabel;html=1;align=center;verticalAlign=middle;resizable=0;points=[];" parent="YY9x1Kv6m4PW0GLoKf8L-53" connectable="0" vertex="1">
          <mxGeometry x="-0.0199" relative="1" as="geometry">
            <mxPoint x="-1" as="offset" />
          </mxGeometry>
        </mxCell>
        <mxCell id="YY9x1Kv6m4PW0GLoKf8L-51" style="edgeStyle=orthogonalEdgeStyle;rounded=0;orthogonalLoop=1;jettySize=auto;html=1;curved=0;entryX=0.101;entryY=0.271;entryDx=0;entryDy=0;entryPerimeter=0;exitX=0.5;exitY=0.188;exitDx=0;exitDy=0;exitPerimeter=0;" parent="vAnZ-FL5wsYkbNKWijkx-1" edge="1">
          <mxGeometry relative="1" as="geometry">
            <Array as="points">
              <mxPoint x="2370" y="514" />
              <mxPoint x="2370" y="520" />
            </Array>
            <mxPoint x="2416.01" y="519.8800000000001" as="targetPoint" />
            <mxPoint x="2945" y="513.48" as="sourcePoint" />
          </mxGeometry>
        </mxCell>
        <mxCell id="YY9x1Kv6m4PW0GLoKf8L-52" value="publish(newUserCreatedEvent):void" style="edgeLabel;html=1;align=center;verticalAlign=middle;resizable=0;points=[];" parent="YY9x1Kv6m4PW0GLoKf8L-51" connectable="0" vertex="1">
          <mxGeometry x="-0.1188" y="-2" relative="1" as="geometry">
            <mxPoint x="-33" as="offset" />
          </mxGeometry>
        </mxCell>
        <mxCell id="vAnZ-FL5wsYkbNKWijkx-3" value="&lt;span style=&quot;color: rgb(255, 255, 255); text-wrap: nowrap;&quot;&gt;if a userAccountprofile is found&lt;/span&gt;" style="line;strokeWidth=5;dashed=1;labelPosition=center;verticalLabelPosition=bottom;align=left;verticalAlign=top;spacingLeft=20;spacingTop=15;html=1;whiteSpace=wrap;strokeColor=#FFFFFF;labelBackgroundColor=none;" parent="vAnZ-FL5wsYkbNKWijkx-1" vertex="1">
          <mxGeometry x="-10" y="1024" width="3890" height="10" as="geometry" />
        </mxCell>
        <mxCell id="EfZ5ia9oF0YRaJpPhBu--1" style="edgeStyle=orthogonalEdgeStyle;rounded=0;orthogonalLoop=1;jettySize=auto;html=1;curved=0;entryX=0.005;entryY=0.015;entryDx=0;entryDy=0;entryPerimeter=0;exitX=1.5;exitY=0.144;exitDx=0;exitDy=0;exitPerimeter=0;" edge="1" parent="vAnZ-FL5wsYkbNKWijkx-1">
          <mxGeometry relative="1" as="geometry">
            <mxPoint x="2955" y="467.2399999999998" as="sourcePoint" />
            <mxPoint x="3441" y="467.53499999999985" as="targetPoint" />
            <Array as="points" />
          </mxGeometry>
        </mxCell>
        <mxCell id="EfZ5ia9oF0YRaJpPhBu--7" value="creates" style="edgeLabel;html=1;align=center;verticalAlign=middle;resizable=0;points=[];" vertex="1" connectable="0" parent="EfZ5ia9oF0YRaJpPhBu--1">
          <mxGeometry x="-0.0098" relative="1" as="geometry">
            <mxPoint as="offset" />
          </mxGeometry>
        </mxCell>
        <mxCell id="EfZ5ia9oF0YRaJpPhBu--2" value=":userAccountCreationService" style="shape=umlLifeline;perimeter=lifelinePerimeter;whiteSpace=wrap;html=1;container=1;dropTarget=0;collapsible=0;recursiveResize=0;outlineConnect=0;portConstraint=eastwest;newEdgeStyle={&quot;curved&quot;:0,&quot;rounded&quot;:0};fillColor=#d5e8d4;strokeColor=#000000;" vertex="1" parent="vAnZ-FL5wsYkbNKWijkx-1">
          <mxGeometry x="2845" y="340" width="200" height="1060" as="geometry" />
        </mxCell>
        <mxCell id="EfZ5ia9oF0YRaJpPhBu--3" value="" style="html=1;points=[[0,0,0,0,5],[0,1,0,0,-5],[1,0,0,0,5],[1,1,0,0,-5]];perimeter=orthogonalPerimeter;outlineConnect=0;targetShapes=umlLifeline;portConstraint=eastwest;newEdgeStyle={&quot;curved&quot;:0,&quot;rounded&quot;:0};fillColor=#d5e8d4;strokeColor=#82b366;" vertex="1" parent="EfZ5ia9oF0YRaJpPhBu--2">
          <mxGeometry x="95" y="70" width="10" height="990" as="geometry" />
        </mxCell>
        <mxCell id="EfZ5ia9oF0YRaJpPhBu--4" value="" style="shape=umlDestroy;whiteSpace=wrap;html=1;strokeWidth=3;targetShapes=umlLifeline;" vertex="1" parent="EfZ5ia9oF0YRaJpPhBu--2">
          <mxGeometry x="85" y="1180" width="30" height="30" as="geometry" />
        </mxCell>
        <mxCell id="t-fwkB02aY1UNHuEOvj0-12" style="edgeStyle=orthogonalEdgeStyle;rounded=0;orthogonalLoop=1;jettySize=auto;html=1;curved=0;entryX=0.525;entryY=0.339;entryDx=0;entryDy=0;entryPerimeter=0;dashed=1;endArrow=open;endFill=0;exitX=0.5;exitY=0.217;exitDx=0;exitDy=0;exitPerimeter=0;" parent="vAnZ-FL5wsYkbNKWijkx-1" edge="1">
          <mxGeometry relative="1" as="geometry">
            <mxPoint x="2670" y="652.3600000000001" as="sourcePoint" />
            <mxPoint x="2425" y="653.2800000000002" as="targetPoint" />
            <Array as="points" />
          </mxGeometry>
        </mxCell>
        <mxCell id="YY9x1Kv6m4PW0GLoKf8L-5" style="edgeStyle=orthogonalEdgeStyle;rounded=0;orthogonalLoop=1;jettySize=auto;html=1;curved=0;dashed=1;endArrow=open;endFill=0;entryX=1;entryY=0.248;entryDx=0;entryDy=0;entryPerimeter=0;exitX=-0.149;exitY=0.154;exitDx=0;exitDy=0;exitPerimeter=0;" parent="vAnZ-FL5wsYkbNKWijkx-1" target="vAnZ-FL5wsYkbNKWijkx-32" edge="1">
          <mxGeometry relative="1" as="geometry">
            <mxPoint x="1173.5100000000002" y="118.78999999999985" as="sourcePoint" />
            <mxPoint x="876.7" y="108.99999999999989" as="targetPoint" />
            <Array as="points" />
          </mxGeometry>
        </mxCell>
        <mxCell id="YY9x1Kv6m4PW0GLoKf8L-7" value="boolean" style="edgeLabel;html=1;align=center;verticalAlign=middle;resizable=0;points=[];" parent="YY9x1Kv6m4PW0GLoKf8L-5" connectable="0" vertex="1">
          <mxGeometry x="0.0643" y="1" relative="1" as="geometry">
            <mxPoint as="offset" />
          </mxGeometry>
        </mxCell>
        <mxCell id="vAnZ-FL5wsYkbNKWijkx-5" value="RepositoryFactory" style="shape=umlLifeline;perimeter=lifelinePerimeter;whiteSpace=wrap;html=1;container=1;dropTarget=0;collapsible=0;recursiveResize=0;outlineConnect=0;portConstraint=eastwest;newEdgeStyle={&quot;curved&quot;:0,&quot;rounded&quot;:0};fillColor=#f8cecc;strokeColor=#000000;" parent="1" vertex="1">
          <mxGeometry x="1110" y="40" width="200" height="1920" as="geometry" />
        </mxCell>
        <mxCell id="vAnZ-FL5wsYkbNKWijkx-6" value="" style="html=1;points=[[0,0,0,0,5],[0,1,0,0,-5],[1,0,0,0,5],[1,1,0,0,-5]];perimeter=orthogonalPerimeter;outlineConnect=0;targetShapes=umlLifeline;portConstraint=eastwest;newEdgeStyle={&quot;curved&quot;:0,&quot;rounded&quot;:0};fillColor=#f8cecc;strokeColor=#b85450;" parent="vAnZ-FL5wsYkbNKWijkx-5" vertex="1">
          <mxGeometry x="95" y="100" width="10" height="1660" as="geometry" />
        </mxCell>
        <mxCell id="t-fwkB02aY1UNHuEOvj0-25" value="" style="shape=umlDestroy;whiteSpace=wrap;html=1;strokeWidth=3;targetShapes=umlLifeline;" parent="vAnZ-FL5wsYkbNKWijkx-5" vertex="1">
          <mxGeometry x="85" y="1880" width="30" height="30" as="geometry" />
        </mxCell>
        <mxCell id="vAnZ-FL5wsYkbNKWijkx-7" value="" style="shape=umlLifeline;perimeter=lifelinePerimeter;whiteSpace=wrap;html=1;container=1;dropTarget=0;collapsible=0;recursiveResize=0;outlineConnect=0;portConstraint=eastwest;newEdgeStyle={&quot;curved&quot;:0,&quot;rounded&quot;:0};participant=umlActor;size=50;" parent="1" vertex="1">
          <mxGeometry x="230" y="50" width="30" height="1920" as="geometry" />
        </mxCell>
        <mxCell id="vAnZ-FL5wsYkbNKWijkx-8" value="" style="html=1;points=[[0,0,0,0,5],[0,1,0,0,-5],[1,0,0,0,5],[1,1,0,0,-5]];perimeter=orthogonalPerimeter;outlineConnect=0;targetShapes=umlLifeline;portConstraint=eastwest;newEdgeStyle={&quot;curved&quot;:0,&quot;rounded&quot;:0};" parent="vAnZ-FL5wsYkbNKWijkx-7" vertex="1">
          <mxGeometry x="10" y="80" width="10" height="1680" as="geometry" />
        </mxCell>
        <mxCell id="vAnZ-FL5wsYkbNKWijkx-9" value="" style="shape=umlDestroy;whiteSpace=wrap;html=1;strokeWidth=3;targetShapes=umlLifeline;" parent="vAnZ-FL5wsYkbNKWijkx-7" vertex="1">
          <mxGeometry y="1890" width="30" height="30" as="geometry" />
        </mxCell>
        <mxCell id="vAnZ-FL5wsYkbNKWijkx-10" value=":UserAccountController" style="shape=umlLifeline;perimeter=lifelinePerimeter;whiteSpace=wrap;html=1;container=1;dropTarget=0;collapsible=0;recursiveResize=0;outlineConnect=0;portConstraint=eastwest;newEdgeStyle={&quot;curved&quot;:0,&quot;rounded&quot;:0};fillColor=#6d8764;strokeColor=#3A5431;fontColor=#ffffff;" parent="1" vertex="1">
          <mxGeometry x="460" y="40" width="140" height="1930" as="geometry" />
        </mxCell>
        <mxCell id="vAnZ-FL5wsYkbNKWijkx-11" value="" style="html=1;points=[[0,0,0,0,5],[0,1,0,0,-5],[1,0,0,0,5],[1,1,0,0,-5]];perimeter=orthogonalPerimeter;outlineConnect=0;targetShapes=umlLifeline;portConstraint=eastwest;newEdgeStyle={&quot;curved&quot;:0,&quot;rounded&quot;:0};fillColor=#6d8764;strokeColor=#3A5431;fontColor=#ffffff;" parent="vAnZ-FL5wsYkbNKWijkx-10" vertex="1">
          <mxGeometry x="65" y="100" width="10" height="1660" as="geometry" />
        </mxCell>
        <mxCell id="t-fwkB02aY1UNHuEOvj0-21" value="" style="shape=umlDestroy;whiteSpace=wrap;html=1;strokeWidth=3;targetShapes=umlLifeline;" parent="vAnZ-FL5wsYkbNKWijkx-10" vertex="1">
          <mxGeometry x="55" y="1900" width="30" height="30" as="geometry" />
        </mxCell>
        <mxCell id="vAnZ-FL5wsYkbNKWijkx-12" style="edgeStyle=orthogonalEdgeStyle;rounded=0;orthogonalLoop=1;jettySize=auto;html=1;curved=0;" parent="1" edge="1">
          <mxGeometry relative="1" as="geometry">
            <Array as="points">
              <mxPoint x="270" y="150" />
              <mxPoint x="270" y="150" />
            </Array>
            <mxPoint x="250" y="150.0588235294117" as="sourcePoint" />
            <mxPoint x="525" y="150.0588235294117" as="targetPoint" />
          </mxGeometry>
        </mxCell>
        <mxCell id="vAnZ-FL5wsYkbNKWijkx-13" value="createUserAccount(form):void" style="edgeLabel;html=1;align=center;verticalAlign=middle;resizable=0;points=[];" parent="vAnZ-FL5wsYkbNKWijkx-12" connectable="0" vertex="1">
          <mxGeometry x="-0.1654" y="3" relative="1" as="geometry">
            <mxPoint as="offset" />
          </mxGeometry>
        </mxCell>
        <mxCell id="vAnZ-FL5wsYkbNKWijkx-14" value="external system" style="text;html=1;align=center;verticalAlign=middle;resizable=0;points=[];autosize=1;strokeColor=none;fillColor=none;" parent="1" vertex="1">
          <mxGeometry x="190" y="100" width="110" height="30" as="geometry" />
        </mxCell>
        <mxCell id="vAnZ-FL5wsYkbNKWijkx-29" value=":UserAccountForm" style="shape=umlLifeline;perimeter=lifelinePerimeter;whiteSpace=wrap;html=1;container=1;dropTarget=0;collapsible=0;recursiveResize=0;outlineConnect=0;portConstraint=eastwest;newEdgeStyle={&quot;curved&quot;:0,&quot;rounded&quot;:0};fillColor=#ffe6cc;strokeColor=#000000;" parent="1" vertex="1">
          <mxGeometry x="1920" y="110" width="200" height="1850" as="geometry" />
        </mxCell>
        <mxCell id="vAnZ-FL5wsYkbNKWijkx-30" value="" style="html=1;points=[[0,0,0,0,5],[0,1,0,0,-5],[1,0,0,0,5],[1,1,0,0,-5]];perimeter=orthogonalPerimeter;outlineConnect=0;targetShapes=umlLifeline;portConstraint=eastwest;newEdgeStyle={&quot;curved&quot;:0,&quot;rounded&quot;:0};fillColor=#ffe6cc;strokeColor=#d79b00;" parent="vAnZ-FL5wsYkbNKWijkx-29" vertex="1">
          <mxGeometry x="95" y="100" width="10" height="1580" as="geometry" />
        </mxCell>
        <mxCell id="t-fwkB02aY1UNHuEOvj0-22" value="" style="shape=umlDestroy;whiteSpace=wrap;html=1;strokeWidth=3;targetShapes=umlLifeline;" parent="vAnZ-FL5wsYkbNKWijkx-29" vertex="1">
          <mxGeometry x="85" y="1810" width="30" height="30" as="geometry" />
        </mxCell>
        <mxCell id="vAnZ-FL5wsYkbNKWijkx-31" value=":UserAccountApplicationService" style="shape=umlLifeline;perimeter=lifelinePerimeter;whiteSpace=wrap;html=1;container=1;dropTarget=0;collapsible=0;recursiveResize=0;outlineConnect=0;portConstraint=eastwest;newEdgeStyle={&quot;curved&quot;:0,&quot;rounded&quot;:0};fillColor=#dae8fc;strokeColor=#000000;" parent="1" vertex="1">
          <mxGeometry x="800" y="40" width="200" height="1930" as="geometry" />
        </mxCell>
        <mxCell id="vAnZ-FL5wsYkbNKWijkx-32" value="" style="html=1;points=[[0,0,0,0,5],[0,1,0,0,-5],[1,0,0,0,5],[1,1,0,0,-5]];perimeter=orthogonalPerimeter;outlineConnect=0;targetShapes=umlLifeline;portConstraint=eastwest;newEdgeStyle={&quot;curved&quot;:0,&quot;rounded&quot;:0};fillColor=#dae8fc;strokeColor=#6c8ebf;" parent="vAnZ-FL5wsYkbNKWijkx-31" vertex="1">
          <mxGeometry x="95" y="100" width="10" height="1650" as="geometry" />
        </mxCell>
        <mxCell id="-0hkEy1Hxc49sj2pGJvD-28" style="edgeStyle=orthogonalEdgeStyle;rounded=0;orthogonalLoop=1;jettySize=auto;html=1;curved=0;entryX=1.064;entryY=0.828;entryDx=0;entryDy=0;entryPerimeter=0;" parent="vAnZ-FL5wsYkbNKWijkx-31" edge="1">
          <mxGeometry relative="1" as="geometry">
            <Array as="points">
              <mxPoint x="140" y="1426" />
              <mxPoint x="140" y="1486" />
            </Array>
            <mxPoint x="106" y="1426" as="sourcePoint" />
            <mxPoint x="105.63999999999987" y="1486.1999999999998" as="targetPoint" />
          </mxGeometry>
        </mxCell>
        <mxCell id="-0hkEy1Hxc49sj2pGJvD-29" value="th" style="edgeLabel;html=1;align=center;verticalAlign=middle;resizable=0;points=[];" parent="-0hkEy1Hxc49sj2pGJvD-28" connectable="0" vertex="1">
          <mxGeometry x="-0.0515" relative="1" as="geometry">
            <mxPoint as="offset" />
          </mxGeometry>
        </mxCell>
        <mxCell id="-0hkEy1Hxc49sj2pGJvD-30" value="throwConfoctError()" style="edgeLabel;html=1;align=center;verticalAlign=middle;resizable=0;points=[];" parent="-0hkEy1Hxc49sj2pGJvD-28" connectable="0" vertex="1">
          <mxGeometry x="-0.0246" y="2" relative="1" as="geometry">
            <mxPoint as="offset" />
          </mxGeometry>
        </mxCell>
        <mxCell id="t-fwkB02aY1UNHuEOvj0-26" value="" style="shape=umlDestroy;whiteSpace=wrap;html=1;strokeWidth=3;targetShapes=umlLifeline;" parent="vAnZ-FL5wsYkbNKWijkx-31" vertex="1">
          <mxGeometry x="85" y="1890" width="30" height="30" as="geometry" />
        </mxCell>
        <mxCell id="YY9x1Kv6m4PW0GLoKf8L-1" style="edgeStyle=orthogonalEdgeStyle;rounded=0;orthogonalLoop=1;jettySize=auto;html=1;curved=0;entryX=-0.016;entryY=0.017;entryDx=0;entryDy=0;entryPerimeter=0;exitX=0.523;exitY=0.069;exitDx=0;exitDy=0;exitPerimeter=0;" parent="1" source="vAnZ-FL5wsYkbNKWijkx-10" target="vAnZ-FL5wsYkbNKWijkx-29" edge="1">
          <mxGeometry relative="1" as="geometry">
            <Array as="points" />
          </mxGeometry>
        </mxCell>
        <mxCell id="YY9x1Kv6m4PW0GLoKf8L-2" value="creates" style="edgeLabel;html=1;align=center;verticalAlign=middle;resizable=0;points=[];" parent="YY9x1Kv6m4PW0GLoKf8L-1" connectable="0" vertex="1">
          <mxGeometry x="0.0679" relative="1" as="geometry">
            <mxPoint as="offset" />
          </mxGeometry>
        </mxCell>
        <mxCell id="YY9x1Kv6m4PW0GLoKf8L-26" value=":UserAccountProfileForm" style="shape=umlLifeline;perimeter=lifelinePerimeter;whiteSpace=wrap;html=1;container=1;dropTarget=0;collapsible=0;recursiveResize=0;outlineConnect=0;portConstraint=eastwest;newEdgeStyle={&quot;curved&quot;:0,&quot;rounded&quot;:0};fillColor=#ffe6cc;strokeColor=#000000;" parent="1" vertex="1">
          <mxGeometry x="2140" y="200" width="200" height="1760" as="geometry" />
        </mxCell>
        <mxCell id="YY9x1Kv6m4PW0GLoKf8L-27" value="" style="html=1;points=[[0,0,0,0,5],[0,1,0,0,-5],[1,0,0,0,5],[1,1,0,0,-5]];perimeter=orthogonalPerimeter;outlineConnect=0;targetShapes=umlLifeline;portConstraint=eastwest;newEdgeStyle={&quot;curved&quot;:0,&quot;rounded&quot;:0};fillColor=#fff2cc;strokeColor=#d6b656;" parent="YY9x1Kv6m4PW0GLoKf8L-26" vertex="1">
          <mxGeometry x="95" y="100" width="10" height="1480" as="geometry" />
        </mxCell>
        <mxCell id="t-fwkB02aY1UNHuEOvj0-27" value="" style="shape=umlDestroy;whiteSpace=wrap;html=1;strokeWidth=3;targetShapes=umlLifeline;" parent="YY9x1Kv6m4PW0GLoKf8L-26" vertex="1">
          <mxGeometry x="85" y="1720" width="30" height="30" as="geometry" />
        </mxCell>
        <mxCell id="vAnZ-FL5wsYkbNKWijkx-17" style="edgeStyle=orthogonalEdgeStyle;rounded=0;orthogonalLoop=1;jettySize=auto;html=1;curved=0;" parent="1" source="vAnZ-FL5wsYkbNKWijkx-10" target="vAnZ-FL5wsYkbNKWijkx-31" edge="1">
          <mxGeometry relative="1" as="geometry">
            <mxPoint x="590" y="254.5" as="sourcePoint" />
            <mxPoint x="840" y="254.5" as="targetPoint" />
            <Array as="points">
              <mxPoint x="750" y="255" />
              <mxPoint x="750" y="280" />
            </Array>
          </mxGeometry>
        </mxCell>
        <mxCell id="vAnZ-FL5wsYkbNKWijkx-18" value="Text" style="edgeLabel;html=1;align=center;verticalAlign=middle;resizable=0;points=[];" parent="vAnZ-FL5wsYkbNKWijkx-17" connectable="0" vertex="1">
          <mxGeometry x="-0.0145" y="-2" relative="1" as="geometry">
            <mxPoint y="1" as="offset" />
          </mxGeometry>
        </mxCell>
        <mxCell id="vAnZ-FL5wsYkbNKWijkx-19" value="createUserAccount(UserAccountCreationform,&lt;div&gt;&amp;nbsp;UserAccountProfileCreationForm):void&lt;/div&gt;" style="edgeLabel;html=1;align=center;verticalAlign=middle;resizable=0;points=[];" parent="vAnZ-FL5wsYkbNKWijkx-17" connectable="0" vertex="1">
          <mxGeometry y="-5" relative="1" as="geometry">
            <mxPoint as="offset" />
          </mxGeometry>
        </mxCell>
        <mxCell id="vAnZ-FL5wsYkbNKWijkx-22" style="edgeStyle=orthogonalEdgeStyle;rounded=0;orthogonalLoop=1;jettySize=auto;html=1;curved=0;dashed=1;endArrow=open;endFill=0;exitX=-0.282;exitY=0.083;exitDx=0;exitDy=0;exitPerimeter=0;" parent="1" edge="1">
          <mxGeometry relative="1" as="geometry">
            <mxPoint x="2012.1799999999998" y="475.1400000000001" as="sourcePoint" />
            <mxPoint x="900" y="475" as="targetPoint" />
            <Array as="points">
              <mxPoint x="1065" y="474" />
              <mxPoint x="900" y="474" />
            </Array>
          </mxGeometry>
        </mxCell>
        <mxCell id="YY9x1Kv6m4PW0GLoKf8L-8" value="string" style="edgeLabel;html=1;align=center;verticalAlign=middle;resizable=0;points=[];" parent="vAnZ-FL5wsYkbNKWijkx-22" connectable="0" vertex="1">
          <mxGeometry x="-0.075" y="-1" relative="1" as="geometry">
            <mxPoint x="-65" as="offset" />
          </mxGeometry>
        </mxCell>
        <mxCell id="YY9x1Kv6m4PW0GLoKf8L-28" style="edgeStyle=orthogonalEdgeStyle;rounded=0;orthogonalLoop=1;jettySize=auto;html=1;curved=0;entryX=0.025;entryY=0.018;entryDx=0;entryDy=0;entryPerimeter=0;" parent="1" source="vAnZ-FL5wsYkbNKWijkx-11" target="YY9x1Kv6m4PW0GLoKf8L-26" edge="1">
          <mxGeometry relative="1" as="geometry">
            <Array as="points">
              <mxPoint x="1150" y="229" />
            </Array>
            <mxPoint x="1890" y="230" as="targetPoint" />
          </mxGeometry>
        </mxCell>
        <mxCell id="YY9x1Kv6m4PW0GLoKf8L-29" value="creates" style="edgeLabel;html=1;align=center;verticalAlign=middle;resizable=0;points=[];" parent="YY9x1Kv6m4PW0GLoKf8L-28" connectable="0" vertex="1">
          <mxGeometry x="-0.0074" y="1" relative="1" as="geometry">
            <mxPoint x="31" as="offset" />
          </mxGeometry>
        </mxCell>
        <mxCell id="YY9x1Kv6m4PW0GLoKf8L-43" style="edgeStyle=orthogonalEdgeStyle;rounded=0;orthogonalLoop=1;jettySize=auto;html=1;curved=0;exitX=0.6;exitY=0.272;exitDx=0;exitDy=0;exitPerimeter=0;entryX=0;entryY=0.014;entryDx=0;entryDy=0;entryPerimeter=0;" parent="1" target="YY9x1Kv6m4PW0GLoKf8L-41" edge="1" source="vAnZ-FL5wsYkbNKWijkx-32">
          <mxGeometry relative="1" as="geometry">
            <Array as="points">
              <mxPoint x="902" y="589" />
            </Array>
            <mxPoint x="2027.1999999999998" y="457.23" as="targetPoint" />
            <mxPoint x="902.3400000000001" y="461.6500000000001" as="sourcePoint" />
          </mxGeometry>
        </mxCell>
        <mxCell id="YY9x1Kv6m4PW0GLoKf8L-47" value="creates" style="edgeLabel;html=1;align=center;verticalAlign=middle;resizable=0;points=[];" parent="YY9x1Kv6m4PW0GLoKf8L-43" connectable="0" vertex="1">
          <mxGeometry x="0.0584" y="-2" relative="1" as="geometry">
            <mxPoint x="-1" as="offset" />
          </mxGeometry>
        </mxCell>
        <mxCell id="YY9x1Kv6m4PW0GLoKf8L-57" value="&lt;b&gt;&lt;font style=&quot;font-size: 25px;&quot;&gt;REGISTERING USERS&lt;/font&gt;&lt;/b&gt;" style="text;html=1;align=center;verticalAlign=middle;resizable=0;points=[];autosize=1;strokeColor=none;fillColor=none;" parent="1" vertex="1">
          <mxGeometry x="1760" y="-160" width="290" height="40" as="geometry" />
        </mxCell>
        <mxCell id="-0hkEy1Hxc49sj2pGJvD-4" style="edgeStyle=orthogonalEdgeStyle;rounded=0;orthogonalLoop=1;jettySize=auto;html=1;curved=0;dashed=1;endArrow=open;endFill=0;exitX=-0.274;exitY=0.032;exitDx=0;exitDy=0;exitPerimeter=0;" parent="1" edge="1">
          <mxGeometry relative="1" as="geometry">
            <mxPoint x="899.5" y="732" as="targetPoint" />
            <Array as="points" />
            <mxPoint x="2442.26" y="732.96" as="sourcePoint" />
          </mxGeometry>
        </mxCell>
        <mxCell id="-0hkEy1Hxc49sj2pGJvD-7" value=":UserAccountRepository" style="shape=umlLifeline;perimeter=lifelinePerimeter;whiteSpace=wrap;html=1;container=1;dropTarget=0;collapsible=0;recursiveResize=0;outlineConnect=0;portConstraint=eastwest;newEdgeStyle={&quot;curved&quot;:0,&quot;rounded&quot;:0};fillColor=#f8cecc;strokeColor=#000000;" parent="1" vertex="1">
          <mxGeometry x="1340" y="380" width="200" height="1580" as="geometry" />
        </mxCell>
        <mxCell id="-0hkEy1Hxc49sj2pGJvD-8" value="" style="html=1;points=[[0,0,0,0,5],[0,1,0,0,-5],[1,0,0,0,5],[1,1,0,0,-5]];perimeter=orthogonalPerimeter;outlineConnect=0;targetShapes=umlLifeline;portConstraint=eastwest;newEdgeStyle={&quot;curved&quot;:0,&quot;rounded&quot;:0};fillColor=#f8cecc;strokeColor=#b85450;" parent="-0hkEy1Hxc49sj2pGJvD-7" vertex="1">
          <mxGeometry x="95" y="100" width="10" height="1660" as="geometry" />
        </mxCell>
        <mxCell id="t-fwkB02aY1UNHuEOvj0-24" value="" style="shape=umlDestroy;whiteSpace=wrap;html=1;strokeWidth=3;targetShapes=umlLifeline;" parent="-0hkEy1Hxc49sj2pGJvD-7" vertex="1">
          <mxGeometry x="85" y="1880" width="30" height="30" as="geometry" />
        </mxCell>
        <mxCell id="-0hkEy1Hxc49sj2pGJvD-9" style="edgeStyle=orthogonalEdgeStyle;rounded=0;orthogonalLoop=1;jettySize=auto;html=1;curved=0;exitX=1.5;exitY=0.618;exitDx=0;exitDy=0;exitPerimeter=0;" parent="1" edge="1">
          <mxGeometry relative="1" as="geometry">
            <mxPoint x="910" y="1209" as="sourcePoint" />
            <mxPoint x="1435" y="1209" as="targetPoint" />
            <Array as="points">
              <mxPoint x="1435" y="1209" />
            </Array>
          </mxGeometry>
        </mxCell>
        <mxCell id="-0hkEy1Hxc49sj2pGJvD-10" value="save(userAccount):void" style="edgeLabel;html=1;align=center;verticalAlign=middle;resizable=0;points=[];" parent="-0hkEy1Hxc49sj2pGJvD-9" connectable="0" vertex="1">
          <mxGeometry x="-0.0587" y="-1" relative="1" as="geometry">
            <mxPoint as="offset" />
          </mxGeometry>
        </mxCell>
        <mxCell id="-0hkEy1Hxc49sj2pGJvD-19" style="edgeStyle=orthogonalEdgeStyle;rounded=0;orthogonalLoop=1;jettySize=auto;html=1;curved=0;entryX=1.5;entryY=0.57;entryDx=0;entryDy=0;entryPerimeter=0;dashed=1;endArrow=open;endFill=0;exitX=-0.274;exitY=0.539;exitDx=0;exitDy=0;exitPerimeter=0;" parent="1" edge="1">
          <mxGeometry relative="1" as="geometry">
            <mxPoint x="1432.2600000000002" y="1258.25" as="sourcePoint" />
            <mxPoint x="910" y="1255.5" as="targetPoint" />
            <Array as="points">
              <mxPoint x="1420" y="1258" />
              <mxPoint x="1420" y="1256" />
            </Array>
          </mxGeometry>
        </mxCell>
        <mxCell id="-0hkEy1Hxc49sj2pGJvD-20" style="edgeStyle=orthogonalEdgeStyle;rounded=0;orthogonalLoop=1;jettySize=auto;html=1;curved=0;entryX=0.5;entryY=0.647;entryDx=0;entryDy=0;entryPerimeter=0;exitX=1.5;exitY=0.697;exitDx=0;exitDy=0;exitPerimeter=0;" parent="1" edge="1">
          <mxGeometry relative="1" as="geometry">
            <mxPoint x="900" y="1286.8000000000002" as="sourcePoint" />
            <mxPoint x="1440" y="1288.25" as="targetPoint" />
            <Array as="points">
              <mxPoint x="900" y="1290" />
              <mxPoint x="1110" y="1290" />
              <mxPoint x="1110" y="1289" />
              <mxPoint x="1430" y="1289" />
            </Array>
          </mxGeometry>
        </mxCell>
        <mxCell id="-0hkEy1Hxc49sj2pGJvD-21" value="commit():void" style="edgeLabel;html=1;align=center;verticalAlign=middle;resizable=0;points=[];" parent="-0hkEy1Hxc49sj2pGJvD-20" connectable="0" vertex="1">
          <mxGeometry x="-0.0587" y="-1" relative="1" as="geometry">
            <mxPoint as="offset" />
          </mxGeometry>
        </mxCell>
        <mxCell id="-0hkEy1Hxc49sj2pGJvD-24" style="edgeStyle=orthogonalEdgeStyle;rounded=0;orthogonalLoop=1;jettySize=auto;html=1;curved=0;entryX=1;entryY=0.497;entryDx=0;entryDy=0;entryPerimeter=0;dashed=1;endArrow=open;endFill=0;exitX=-0.024;exitY=0.879;exitDx=0;exitDy=0;exitPerimeter=0;" parent="1" source="vAnZ-FL5wsYkbNKWijkx-11" edge="1">
          <mxGeometry relative="1" as="geometry">
            <mxPoint x="575" y="1597.0588235294122" as="sourcePoint" />
            <mxPoint x="250" y="1597.0500000000002" as="targetPoint" />
            <Array as="points">
              <mxPoint x="525" y="1597" />
            </Array>
          </mxGeometry>
        </mxCell>
        <mxCell id="-0hkEy1Hxc49sj2pGJvD-26" value="error" style="edgeLabel;html=1;align=center;verticalAlign=middle;resizable=0;points=[];" parent="-0hkEy1Hxc49sj2pGJvD-24" connectable="0" vertex="1">
          <mxGeometry x="-0.0092" y="1" relative="1" as="geometry">
            <mxPoint x="1" as="offset" />
          </mxGeometry>
        </mxCell>
        <mxCell id="YY9x1Kv6m4PW0GLoKf8L-3" style="edgeStyle=orthogonalEdgeStyle;rounded=0;orthogonalLoop=1;jettySize=auto;html=1;curved=0;exitX=0.5;exitY=0.139;exitDx=0;exitDy=0;exitPerimeter=0;" parent="1" edge="1">
          <mxGeometry relative="1" as="geometry">
            <mxPoint x="900" y="498.3499999999999" as="sourcePoint" />
            <mxPoint x="1209.5" y="499" as="targetPoint" />
            <Array as="points">
              <mxPoint x="1010" y="498" />
              <mxPoint x="1010" y="497" />
              <mxPoint x="1030" y="497" />
              <mxPoint x="1030" y="499" />
            </Array>
          </mxGeometry>
        </mxCell>
        <mxCell id="YY9x1Kv6m4PW0GLoKf8L-4" value="isThereUserAccountWith(userNmae):boolean" style="edgeLabel;html=1;align=center;verticalAlign=middle;resizable=0;points=[];" parent="YY9x1Kv6m4PW0GLoKf8L-3" connectable="0" vertex="1">
          <mxGeometry x="-0.1454" y="1" relative="1" as="geometry">
            <mxPoint x="14" as="offset" />
          </mxGeometry>
        </mxCell>
        <mxCell id="t-fwkB02aY1UNHuEOvj0-5" style="edgeStyle=orthogonalEdgeStyle;rounded=0;orthogonalLoop=1;jettySize=auto;html=1;curved=0;entryX=0.5;entryY=0.716;entryDx=0;entryDy=0;entryPerimeter=0;dashed=1;endArrow=open;endFill=0;exitX=-0.274;exitY=0.539;exitDx=0;exitDy=0;exitPerimeter=0;" parent="1" edge="1">
          <mxGeometry relative="1" as="geometry">
            <mxPoint x="1435.2600000000002" y="1334.25" as="sourcePoint" />
            <mxPoint x="900" y="1331.3999999999996" as="targetPoint" />
            <Array as="points">
              <mxPoint x="1423" y="1334" />
              <mxPoint x="1423" y="1331" />
            </Array>
          </mxGeometry>
        </mxCell>
        <mxCell id="t-fwkB02aY1UNHuEOvj0-6" style="edgeStyle=orthogonalEdgeStyle;rounded=0;orthogonalLoop=1;jettySize=auto;html=1;curved=0;entryX=1.5;entryY=0.854;entryDx=0;entryDy=0;entryPerimeter=0;dashed=1;endArrow=open;endFill=0;exitX=0.5;exitY=0.859;exitDx=0;exitDy=0;exitPerimeter=0;" parent="1" edge="1">
          <mxGeometry relative="1" as="geometry">
            <mxPoint x="900" y="1556.35" as="sourcePoint" />
            <mxPoint x="540" y="1556.6399999999999" as="targetPoint" />
            <Array as="points" />
          </mxGeometry>
        </mxCell>
        <mxCell id="t-fwkB02aY1UNHuEOvj0-7" value="error" style="edgeLabel;html=1;align=center;verticalAlign=middle;resizable=0;points=[];" parent="t-fwkB02aY1UNHuEOvj0-6" connectable="0" vertex="1">
          <mxGeometry x="-0.0092" y="1" relative="1" as="geometry">
            <mxPoint x="1" as="offset" />
          </mxGeometry>
        </mxCell>
        <mxCell id="YY9x1Kv6m4PW0GLoKf8L-46" style="edgeStyle=orthogonalEdgeStyle;rounded=0;orthogonalLoop=1;jettySize=auto;html=1;curved=0;entryX=-0.02;entryY=0.015;entryDx=0;entryDy=0;entryPerimeter=0;exitX=1.1;exitY=0.308;exitDx=0;exitDy=0;exitPerimeter=0;" parent="1" target="YY9x1Kv6m4PW0GLoKf8L-44" edge="1" source="vAnZ-FL5wsYkbNKWijkx-32">
          <mxGeometry relative="1" as="geometry">
            <mxPoint x="910" y="501" as="sourcePoint" />
            <mxPoint x="2778.6000000000004" y="472.55999999999995" as="targetPoint" />
            <Array as="points">
              <mxPoint x="910" y="648" />
              <mxPoint x="910" y="650" />
            </Array>
          </mxGeometry>
        </mxCell>
        <mxCell id="YY9x1Kv6m4PW0GLoKf8L-48" value="creates" style="edgeLabel;html=1;align=center;verticalAlign=middle;resizable=0;points=[];" parent="YY9x1Kv6m4PW0GLoKf8L-46" connectable="0" vertex="1">
          <mxGeometry x="-0.1333" y="-2" relative="1" as="geometry">
            <mxPoint as="offset" />
          </mxGeometry>
        </mxCell>
        <mxCell id="YY9x1Kv6m4PW0GLoKf8L-49" style="edgeStyle=orthogonalEdgeStyle;rounded=0;orthogonalLoop=1;jettySize=auto;html=1;curved=0;entryX=0.5;entryY=0.017;entryDx=0;entryDy=0;entryPerimeter=0;exitX=0.942;exitY=0.224;exitDx=0;exitDy=0;exitPerimeter=0;" parent="1" edge="1">
          <mxGeometry relative="1" as="geometry">
            <mxPoint x="904.4200000000001" y="701.5999999999999" as="sourcePoint" />
            <mxPoint x="2450" y="701.7600000000002" as="targetPoint" />
            <Array as="points" />
          </mxGeometry>
        </mxCell>
        <mxCell id="YY9x1Kv6m4PW0GLoKf8L-50" value="register(eventSubscriber)" style="edgeLabel;html=1;align=center;verticalAlign=middle;resizable=0;points=[];" parent="YY9x1Kv6m4PW0GLoKf8L-49" connectable="0" vertex="1">
          <mxGeometry x="-0.0531" y="1" relative="1" as="geometry">
            <mxPoint as="offset" />
          </mxGeometry>
        </mxCell>
        <mxCell id="t-fwkB02aY1UNHuEOvj0-10" value=":EventStore" style="shape=umlLifeline;perimeter=lifelinePerimeter;whiteSpace=wrap;html=1;container=1;dropTarget=0;collapsible=0;recursiveResize=0;outlineConnect=0;portConstraint=eastwest;newEdgeStyle={&quot;curved&quot;:0,&quot;rounded&quot;:0};fillColor=#f8cecc;strokeColor=#000000;" parent="1" vertex="1">
          <mxGeometry x="1700" y="430" width="200" height="1530" as="geometry" />
        </mxCell>
        <mxCell id="t-fwkB02aY1UNHuEOvj0-11" value="" style="html=1;points=[[0,0,0,0,5],[0,1,0,0,-5],[1,0,0,0,5],[1,1,0,0,-5]];perimeter=orthogonalPerimeter;outlineConnect=0;targetShapes=umlLifeline;portConstraint=eastwest;newEdgeStyle={&quot;curved&quot;:0,&quot;rounded&quot;:0};fillColor=#f8cecc;strokeColor=#b85450;" parent="t-fwkB02aY1UNHuEOvj0-10" vertex="1">
          <mxGeometry x="95" y="80" width="10" height="1680" as="geometry" />
        </mxCell>
        <mxCell id="t-fwkB02aY1UNHuEOvj0-23" value="" style="shape=umlDestroy;whiteSpace=wrap;html=1;strokeWidth=3;targetShapes=umlLifeline;" parent="t-fwkB02aY1UNHuEOvj0-10" vertex="1">
          <mxGeometry x="85" y="1880" width="30" height="30" as="geometry" />
        </mxCell>
        <mxCell id="vAnZ-FL5wsYkbNKWijkx-20" style="edgeStyle=orthogonalEdgeStyle;rounded=0;orthogonalLoop=1;jettySize=auto;html=1;curved=0;" parent="1" source="vAnZ-FL5wsYkbNKWijkx-32" target="vAnZ-FL5wsYkbNKWijkx-30" edge="1">
          <mxGeometry relative="1" as="geometry">
            <Array as="points">
              <mxPoint x="1030" y="310" />
              <mxPoint x="1030" y="310" />
            </Array>
          </mxGeometry>
        </mxCell>
        <mxCell id="vAnZ-FL5wsYkbNKWijkx-21" value="getUsername():string" style="edgeLabel;html=1;align=center;verticalAlign=middle;resizable=0;points=[];" parent="vAnZ-FL5wsYkbNKWijkx-20" connectable="0" vertex="1">
          <mxGeometry x="0.0348" relative="1" as="geometry">
            <mxPoint as="offset" />
          </mxGeometry>
        </mxCell>
        <mxCell id="vAnZ-FL5wsYkbNKWijkx-35" style="edgeStyle=orthogonalEdgeStyle;rounded=0;orthogonalLoop=1;jettySize=auto;html=1;curved=0;dashed=1;endArrow=open;endFill=0;exitX=-0.2;exitY=0.359;exitDx=0;exitDy=0;exitPerimeter=0;" parent="1" edge="1">
          <mxGeometry relative="1" as="geometry">
            <mxPoint x="910" y="1161" as="targetPoint" />
            <Array as="points">
              <mxPoint x="2823" y="1166" />
              <mxPoint x="2823" y="1161" />
              <mxPoint x="910" y="1161" />
            </Array>
            <mxPoint x="2968" y="1165.6399999999999" as="sourcePoint" />
          </mxGeometry>
        </mxCell>
        <mxCell id="t-fwkB02aY1UNHuEOvj0-17" style="edgeStyle=orthogonalEdgeStyle;rounded=0;orthogonalLoop=1;jettySize=auto;html=1;curved=0;entryX=1.5;entryY=0.854;entryDx=0;entryDy=0;entryPerimeter=0;dashed=1;endArrow=open;endFill=0;exitX=0.5;exitY=0.859;exitDx=0;exitDy=0;exitPerimeter=0;" parent="1" edge="1">
          <mxGeometry relative="1" as="geometry">
            <mxPoint x="896" y="1369.35" as="sourcePoint" />
            <mxPoint x="536" y="1369.6399999999999" as="targetPoint" />
            <Array as="points" />
          </mxGeometry>
        </mxCell>
        <mxCell id="t-fwkB02aY1UNHuEOvj0-18" value="error" style="edgeLabel;html=1;align=center;verticalAlign=middle;resizable=0;points=[];" parent="t-fwkB02aY1UNHuEOvj0-17" connectable="0" vertex="1">
          <mxGeometry x="-0.0092" y="1" relative="1" as="geometry">
            <mxPoint x="1" as="offset" />
          </mxGeometry>
        </mxCell>
        <mxCell id="t-fwkB02aY1UNHuEOvj0-19" style="edgeStyle=orthogonalEdgeStyle;rounded=0;orthogonalLoop=1;jettySize=auto;html=1;curved=0;entryX=1;entryY=0.497;entryDx=0;entryDy=0;entryPerimeter=0;dashed=1;endArrow=open;endFill=0;exitX=-0.024;exitY=0.879;exitDx=0;exitDy=0;exitPerimeter=0;" parent="1" edge="1">
          <mxGeometry relative="1" as="geometry">
            <mxPoint x="525" y="1413" as="sourcePoint" />
            <mxPoint x="250" y="1411.0500000000002" as="targetPoint" />
            <Array as="points">
              <mxPoint x="525" y="1411" />
            </Array>
          </mxGeometry>
        </mxCell>
        <mxCell id="t-fwkB02aY1UNHuEOvj0-20" value="error" style="edgeLabel;html=1;align=center;verticalAlign=middle;resizable=0;points=[];" parent="t-fwkB02aY1UNHuEOvj0-19" connectable="0" vertex="1">
          <mxGeometry x="-0.0092" y="1" relative="1" as="geometry">
            <mxPoint x="1" as="offset" />
          </mxGeometry>
        </mxCell>
        <mxCell id="EfZ5ia9oF0YRaJpPhBu--5" style="edgeStyle=orthogonalEdgeStyle;rounded=0;orthogonalLoop=1;jettySize=auto;html=1;curved=0;entryX=0;entryY=0.016;entryDx=0;entryDy=0;entryPerimeter=0;" edge="1" parent="1" source="vAnZ-FL5wsYkbNKWijkx-32" target="EfZ5ia9oF0YRaJpPhBu--2">
          <mxGeometry relative="1" as="geometry">
            <Array as="points">
              <mxPoint x="2120" y="777" />
              <mxPoint x="2120" y="777" />
            </Array>
          </mxGeometry>
        </mxCell>
        <mxCell id="EfZ5ia9oF0YRaJpPhBu--6" value="creates" style="edgeLabel;html=1;align=center;verticalAlign=middle;resizable=0;points=[];" vertex="1" connectable="0" parent="EfZ5ia9oF0YRaJpPhBu--5">
          <mxGeometry x="0.2526" y="1" relative="1" as="geometry">
            <mxPoint as="offset" />
          </mxGeometry>
        </mxCell>
        <mxCell id="EfZ5ia9oF0YRaJpPhBu--12" style="edgeStyle=orthogonalEdgeStyle;rounded=0;orthogonalLoop=1;jettySize=auto;html=1;curved=0;entryX=0;entryY=0.027;entryDx=0;entryDy=0;entryPerimeter=0;" edge="1" parent="1">
          <mxGeometry relative="1" as="geometry">
            <mxPoint x="905" y="837" as="sourcePoint" />
            <mxPoint x="2970" y="836.9200000000001" as="targetPoint" />
            <Array as="points">
              <mxPoint x="1380" y="837" />
              <mxPoint x="1380" y="837" />
            </Array>
          </mxGeometry>
        </mxCell>
        <mxCell id="EfZ5ia9oF0YRaJpPhBu--13" value="createAndPublishEventWith(userAccountForm,&lt;div&gt;personalInfoForm, domainEventPublisher)&lt;/div&gt;" style="edgeLabel;html=1;align=center;verticalAlign=middle;resizable=0;points=[];" vertex="1" connectable="0" parent="EfZ5ia9oF0YRaJpPhBu--12">
          <mxGeometry x="-0.1792" y="-3" relative="1" as="geometry">
            <mxPoint as="offset" />
          </mxGeometry>
        </mxCell>
        <mxCell id="-0hkEy1Hxc49sj2pGJvD-5" style="edgeStyle=orthogonalEdgeStyle;rounded=0;orthogonalLoop=1;jettySize=auto;html=1;curved=0;endArrow=open;endFill=0;exitX=0.5;exitY=0.193;exitDx=0;exitDy=0;exitPerimeter=0;" parent="1" edge="1">
          <mxGeometry relative="1" as="geometry">
            <mxPoint x="2700" y="1034.44" as="sourcePoint" />
            <mxPoint x="1805" y="1031" as="targetPoint" />
            <Array as="points">
              <mxPoint x="2590" y="1034" />
              <mxPoint x="2590" y="1033" />
              <mxPoint x="2580" y="1033" />
              <mxPoint x="2580" y="1034" />
              <mxPoint x="1850" y="1034" />
              <mxPoint x="1850" y="1031" />
            </Array>
          </mxGeometry>
        </mxCell>
        <mxCell id="t-fwkB02aY1UNHuEOvj0-13" value="save(newUserCreatedEvent)" style="edgeLabel;html=1;align=center;verticalAlign=middle;resizable=0;points=[];" parent="-0hkEy1Hxc49sj2pGJvD-5" connectable="0" vertex="1">
          <mxGeometry x="-0.0091" y="1" relative="1" as="geometry">
            <mxPoint as="offset" />
          </mxGeometry>
        </mxCell>
        <mxCell id="EfZ5ia9oF0YRaJpPhBu--18" style="edgeStyle=orthogonalEdgeStyle;rounded=0;orthogonalLoop=1;jettySize=auto;html=1;curved=0;entryX=0.486;entryY=0.159;entryDx=0;entryDy=0;entryPerimeter=0;" edge="1" parent="1" source="vAnZ-FL5wsYkbNKWijkx-32" target="vAnZ-FL5wsYkbNKWijkx-5">
          <mxGeometry relative="1" as="geometry">
            <Array as="points">
              <mxPoint x="950" y="345" />
              <mxPoint x="950" y="345" />
            </Array>
          </mxGeometry>
        </mxCell>
        <mxCell id="EfZ5ia9oF0YRaJpPhBu--19" value="creatUserAccountRepositoryAndEventStore()" style="edgeLabel;html=1;align=center;verticalAlign=middle;resizable=0;points=[];" vertex="1" connectable="0" parent="EfZ5ia9oF0YRaJpPhBu--18">
          <mxGeometry x="-0.0782" y="-1" relative="1" as="geometry">
            <mxPoint x="1" as="offset" />
          </mxGeometry>
        </mxCell>
        <mxCell id="EfZ5ia9oF0YRaJpPhBu--20" style="edgeStyle=orthogonalEdgeStyle;rounded=0;orthogonalLoop=1;jettySize=auto;html=1;curved=0;entryX=0;entryY=0.014;entryDx=0;entryDy=0;entryPerimeter=0;" edge="1" parent="1" source="vAnZ-FL5wsYkbNKWijkx-6" target="-0hkEy1Hxc49sj2pGJvD-7">
          <mxGeometry relative="1" as="geometry">
            <Array as="points">
              <mxPoint x="1250" y="402" />
              <mxPoint x="1250" y="402" />
            </Array>
          </mxGeometry>
        </mxCell>
        <mxCell id="EfZ5ia9oF0YRaJpPhBu--21" value="creates" style="edgeLabel;html=1;align=center;verticalAlign=middle;resizable=0;points=[];" vertex="1" connectable="0" parent="EfZ5ia9oF0YRaJpPhBu--20">
          <mxGeometry x="0.04" y="-1" relative="1" as="geometry">
            <mxPoint x="-1" as="offset" />
          </mxGeometry>
        </mxCell>
        <mxCell id="EfZ5ia9oF0YRaJpPhBu--22" style="edgeStyle=orthogonalEdgeStyle;rounded=0;orthogonalLoop=1;jettySize=auto;html=1;curved=0;entryX=-0.007;entryY=0.019;entryDx=0;entryDy=0;entryPerimeter=0;" edge="1" parent="1">
          <mxGeometry relative="1" as="geometry">
            <mxPoint x="1215" y="448" as="sourcePoint" />
            <mxPoint x="1698.6000000000004" y="448.07000000000016" as="targetPoint" />
            <Array as="points">
              <mxPoint x="1320" y="448" />
              <mxPoint x="1320" y="448" />
            </Array>
          </mxGeometry>
        </mxCell>
        <mxCell id="EfZ5ia9oF0YRaJpPhBu--23" value="creates" style="edgeLabel;html=1;align=center;verticalAlign=middle;resizable=0;points=[];" vertex="1" connectable="0" parent="EfZ5ia9oF0YRaJpPhBu--22">
          <mxGeometry x="-0.0045" y="2" relative="1" as="geometry">
            <mxPoint x="1" as="offset" />
          </mxGeometry>
        </mxCell>
      </root>
    </mxGraphModel>
  </diagram>
</mxfile>
